<svg width="150" height="150" viewBox="0 0 150 150" fill="none" xmlns="http://www.w3.org/2000/svg">
<mask id="path-1-inside-1_303_26" fill="white">
<path d="M128.033 128.033C117.544 138.522 104.18 145.665 89.6318 148.559C75.0832 151.453 60.0032 149.968 46.2987 144.291C32.5943 138.614 20.8809 129.001 12.6398 116.668C4.39867 104.334 9.13584e-07 89.8336 0 75C-9.13584e-07 60.1664 4.39867 45.6659 12.6398 33.3322C20.8809 20.9986 32.5943 11.3856 46.2987 5.70904C60.0032 0.0324643 75.0832 -1.45279 89.6318 1.4411C104.18 4.33499 117.544 11.478 128.033 21.967L104.168 45.8318C98.3992 40.0629 91.0492 36.1342 83.0475 34.5426C75.0458 32.951 66.7518 33.7679 59.2143 36.89C51.6769 40.0121 45.2345 45.2992 40.7019 52.0827C36.1693 58.8663 33.75 66.8415 33.75 75C33.75 83.1585 36.1693 91.1337 40.7019 97.9173C45.2345 104.701 51.6769 109.988 59.2143 113.11C66.7518 116.232 75.0458 117.049 83.0475 115.457C91.0492 113.866 98.3992 109.937 104.168 104.168L128.033 128.033Z"/>
</mask>
<path d="M128.033 128.033C117.544 138.522 104.18 145.665 89.6318 148.559C75.0832 151.453 60.0032 149.968 46.2987 144.291C32.5943 138.614 20.8809 129.001 12.6398 116.668C4.39867 104.334 9.13584e-07 89.8336 0 75C-9.13584e-07 60.1664 4.39867 45.6659 12.6398 33.3322C20.8809 20.9986 32.5943 11.3856 46.2987 5.70904C60.0032 0.0324643 75.0832 -1.45279 89.6318 1.4411C104.18 4.33499 117.544 11.478 128.033 21.967L104.168 45.8318C98.3992 40.0629 91.0492 36.1342 83.0475 34.5426C75.0458 32.951 66.7518 33.7679 59.2143 36.89C51.6769 40.0121 45.2345 45.2992 40.7019 52.0827C36.1693 58.8663 33.75 66.8415 33.75 75C33.75 83.1585 36.1693 91.1337 40.7019 97.9173C45.2345 104.701 51.6769 109.988 59.2143 113.11C66.7518 116.232 75.0458 117.049 83.0475 115.457C91.0492 113.866 98.3992 109.937 104.168 104.168L128.033 128.033Z" fill="#4A4E69" stroke="black" stroke-width="2" mask="url(#path-1-inside-1_303_26)"/>
<circle cx="75" cy="75" r="19" fill="#FF0000" stroke="#9A8C98" stroke-width="12"/>
<circle cx="75" cy="75" r="24.5" stroke="black"/>
<circle cx="75" cy="75" r="12.5" stroke="black"/>
</svg>
