<svg width="2048" height="2048" viewBox="0 0 2048 2048" fill="none" xmlns="http://www.w3.org/2000/svg">
<mask id="path-1-inside-1_303_43" fill="white">
<path d="M1748.08 1748.08C1604.87 1891.29 1422.41 1988.81 1223.77 2028.32C1025.14 2067.84 819.244 2047.56 632.132 1970.05C445.021 1892.55 285.094 1761.3 172.575 1592.9C60.0566 1424.51 1.24735e-05 1226.53 0 1024C-1.24735e-05 821.472 60.0565 623.492 172.575 455.096C285.094 286.7 445.021 155.452 632.132 77.9474C819.244 0.443246 1025.14 -19.8354 1223.77 19.6758C1422.41 59.1871 1604.87 156.714 1748.08 299.923L1422.24 625.757C1343.48 546.992 1243.12 493.353 1133.87 471.622C1024.62 449.891 911.384 461.044 808.473 503.671C705.561 546.298 617.601 618.485 555.716 711.103C493.831 803.721 460.8 912.61 460.8 1024C460.8 1135.39 493.831 1244.28 555.716 1336.9C617.602 1429.51 705.561 1501.7 808.473 1544.33C911.384 1586.96 1024.62 1598.11 1133.87 1576.38C1243.12 1554.65 1343.48 1501.01 1422.24 1422.24L1748.08 1748.08Z"/>
</mask>
<path d="M1748.08 1748.08C1604.87 1891.29 1422.41 1988.81 1223.77 2028.32C1025.14 2067.84 819.244 2047.56 632.132 1970.05C445.021 1892.55 285.094 1761.3 172.575 1592.9C60.0566 1424.51 1.24735e-05 1226.53 0 1024C-1.24735e-05 821.472 60.0565 623.492 172.575 455.096C285.094 286.7 445.021 155.452 632.132 77.9474C819.244 0.443246 1025.14 -19.8354 1223.77 19.6758C1422.41 59.1871 1604.87 156.714 1748.08 299.923L1422.24 625.757C1343.48 546.992 1243.12 493.353 1133.87 471.622C1024.62 449.891 911.384 461.044 808.473 503.671C705.561 546.298 617.601 618.485 555.716 711.103C493.831 803.721 460.8 912.61 460.8 1024C460.8 1135.39 493.831 1244.28 555.716 1336.9C617.602 1429.51 705.561 1501.7 808.473 1544.33C911.384 1586.96 1024.62 1598.11 1133.87 1576.38C1243.12 1554.65 1343.48 1501.01 1422.24 1422.24L1748.08 1748.08Z" fill="#4A4E69" stroke="black" stroke-width="10" mask="url(#path-1-inside-1_303_43)"/>
<circle cx="1024" cy="1024" r="259.333" fill="#FF0000" stroke="#9A8C98" stroke-width="164"/>
<circle cx="1024" cy="1024" r="338.833" stroke="black" stroke-width="5"/>
<circle cx="1024" cy="1024" r="174.993" stroke="black" stroke-width="5"/>
</svg>
