<svg width="200" height="150" viewBox="0 0 200 150" fill="none" xmlns="http://www.w3.org/2000/svg">
<mask id="path-1-inside-1_303_27" fill="white">
<path d="M128.033 128.033C117.544 138.522 104.18 145.665 89.6318 148.559C75.0832 151.453 60.0032 149.968 46.2987 144.291C32.5943 138.614 20.8809 129.001 12.6398 116.668C4.39867 104.334 9.13584e-07 89.8336 0 75C-9.13584e-07 60.1664 4.39867 45.6659 12.6398 33.3322C20.8809 20.9986 32.5943 11.3856 46.2987 5.70904C60.0032 0.0324643 75.0832 -1.45279 89.6318 1.4411C104.18 4.33499 117.544 11.478 128.033 21.967L104.168 45.8318C98.3992 40.0629 91.0492 36.1342 83.0475 34.5426C75.0458 32.951 66.7518 33.7679 59.2143 36.89C51.6769 40.0121 45.2345 45.2992 40.7019 52.0827C36.1693 58.8663 33.75 66.8415 33.75 75C33.75 83.1585 36.1693 91.1337 40.7019 97.9173C45.2345 104.701 51.6769 109.988 59.2143 113.11C66.7518 116.232 75.0458 117.049 83.0475 115.457C91.0492 113.866 98.3992 109.937 104.168 104.168L128.033 128.033Z"/>
</mask>
<path d="M128.033 128.033C117.544 138.522 104.18 145.665 89.6318 148.559C75.0832 151.453 60.0032 149.968 46.2987 144.291C32.5943 138.614 20.8809 129.001 12.6398 116.668C4.39867 104.334 9.13584e-07 89.8336 0 75C-9.13584e-07 60.1664 4.39867 45.6659 12.6398 33.3322C20.8809 20.9986 32.5943 11.3856 46.2987 5.70904C60.0032 0.0324643 75.0832 -1.45279 89.6318 1.4411C104.18 4.33499 117.544 11.478 128.033 21.967L104.168 45.8318C98.3992 40.0629 91.0492 36.1342 83.0475 34.5426C75.0458 32.951 66.7518 33.7679 59.2143 36.89C51.6769 40.0121 45.2345 45.2992 40.7019 52.0827C36.1693 58.8663 33.75 66.8415 33.75 75C33.75 83.1585 36.1693 91.1337 40.7019 97.9173C45.2345 104.701 51.6769 109.988 59.2143 113.11C66.7518 116.232 75.0458 117.049 83.0475 115.457C91.0492 113.866 98.3992 109.937 104.168 104.168L128.033 128.033Z" fill="#4A4E69" stroke="black" stroke-width="2" mask="url(#path-1-inside-1_303_27)"/>
<circle cx="75" cy="75" r="19" fill="#FF0000" stroke="#9A8C98" stroke-width="12"/>
<circle cx="75" cy="75" r="24.5" stroke="black"/>
<mask id="path-4-inside-2_303_27" fill="white">
<path d="M42.6777 92.6777C39.1814 96.174 34.7268 98.555 29.8773 99.5196C25.0277 100.484 20.0011 99.9892 15.4329 98.097C10.8648 96.2048 6.9603 93.0005 4.21326 88.8893C1.46622 84.778 3.04528e-07 79.9445 0 75C-3.04528e-07 70.0555 1.46622 65.222 4.21326 61.1107C6.96029 56.9995 10.8648 53.7952 15.4329 51.903C20.0011 50.0108 25.0277 49.5157 29.8773 50.4804C34.7268 51.445 39.1814 53.826 42.6777 57.3223L34.1252 65.8748C32.3204 64.07 30.021 62.8409 27.5176 62.343C25.0143 61.845 22.4195 62.1006 20.0615 63.0773C17.7034 64.0541 15.6879 65.7081 14.2699 67.8304C12.8519 69.9526 12.095 72.4476 12.095 75C12.095 77.5524 12.8519 80.0474 14.2699 82.1696C15.6879 84.2919 17.7034 85.9459 20.0615 86.9227C22.4195 87.8994 25.0143 88.155 27.5176 87.657C30.021 87.1591 32.3204 85.93 34.1252 84.1252L42.6777 92.6777Z"/>
</mask>
<path d="M42.6777 92.6777C39.1814 96.174 34.7268 98.555 29.8773 99.5196C25.0277 100.484 20.0011 99.9892 15.4329 98.097C10.8648 96.2048 6.9603 93.0005 4.21326 88.8893C1.46622 84.778 3.04528e-07 79.9445 0 75C-3.04528e-07 70.0555 1.46622 65.222 4.21326 61.1107C6.96029 56.9995 10.8648 53.7952 15.4329 51.903C20.0011 50.0108 25.0277 49.5157 29.8773 50.4804C34.7268 51.445 39.1814 53.826 42.6777 57.3223L34.1252 65.8748C32.3204 64.07 30.021 62.8409 27.5176 62.343C25.0143 61.845 22.4195 62.1006 20.0615 63.0773C17.7034 64.0541 15.6879 65.7081 14.2699 67.8304C12.8519 69.9526 12.095 72.4476 12.095 75C12.095 77.5524 12.8519 80.0474 14.2699 82.1696C15.6879 84.2919 17.7034 85.9459 20.0615 86.9227C22.4195 87.8994 25.0143 88.155 27.5176 87.657C30.021 87.1591 32.3204 85.93 34.1252 84.1252L42.6777 92.6777Z" fill="#9A8C98" stroke="black" stroke-width="2" mask="url(#path-4-inside-2_303_27)"/>
<mask id="path-5-inside-3_303_27" fill="white">
<path d="M192.678 92.6777C189.181 96.174 184.727 98.555 179.877 99.5196C175.028 100.484 170.001 99.9892 165.433 98.097C160.865 96.2048 156.96 93.0005 154.213 88.8893C151.466 84.778 150 79.9445 150 75C150 70.0555 151.466 65.222 154.213 61.1107C156.96 56.9995 160.865 53.7952 165.433 51.903C170.001 50.0108 175.028 49.5157 179.877 50.4804C184.727 51.445 189.181 53.826 192.678 57.3223L184.125 65.8748C182.32 64.07 180.021 62.8409 177.518 62.343C175.014 61.845 172.42 62.1006 170.061 63.0773C167.703 64.0541 165.688 65.7081 164.27 67.8304C162.852 69.9526 162.095 72.4476 162.095 75C162.095 77.5524 162.852 80.0474 164.27 82.1696C165.688 84.2919 167.703 85.9459 170.061 86.9227C172.42 87.8994 175.014 88.155 177.518 87.657C180.021 87.1591 182.32 85.93 184.125 84.1252L192.678 92.6777Z"/>
</mask>
<path d="M192.678 92.6777C189.181 96.174 184.727 98.555 179.877 99.5196C175.028 100.484 170.001 99.9892 165.433 98.097C160.865 96.2048 156.96 93.0005 154.213 88.8893C151.466 84.778 150 79.9445 150 75C150 70.0555 151.466 65.222 154.213 61.1107C156.96 56.9995 160.865 53.7952 165.433 51.903C170.001 50.0108 175.028 49.5157 179.877 50.4804C184.727 51.445 189.181 53.826 192.678 57.3223L184.125 65.8748C182.32 64.07 180.021 62.8409 177.518 62.343C175.014 61.845 172.42 62.1006 170.061 63.0773C167.703 64.0541 165.688 65.7081 164.27 67.8304C162.852 69.9526 162.095 72.4476 162.095 75C162.095 77.5524 162.852 80.0474 164.27 82.1696C165.688 84.2919 167.703 85.9459 170.061 86.9227C172.42 87.8994 175.014 88.155 177.518 87.657C180.021 87.1591 182.32 85.93 184.125 84.1252L192.678 92.6777Z" fill="#9A8C98" stroke="black" stroke-width="2" mask="url(#path-5-inside-3_303_27)"/>
<rect x="152" y="69" width="22" height="12" fill="#9A8C98"/>
<path d="M162.5 69.5H173H173.5V80.5H162.5" stroke="black"/>
<mask id="path-8-inside-4_303_27" fill="white">
<path d="M142.874 55.1256C140.427 52.6782 137.309 51.0115 133.914 50.3363C130.519 49.661 127.001 50.0076 123.803 51.3321C120.605 52.6566 117.872 54.8997 115.949 57.7775C114.026 60.6554 113 64.0388 113 67.5L125.001 67.5C125.001 66.4123 125.323 65.349 125.927 64.4446C126.532 63.5403 127.391 62.8354 128.395 62.4191C129.4 62.0029 130.506 61.894 131.573 62.1062C132.64 62.3184 133.62 62.8422 134.389 63.6113L142.874 55.1256Z"/>
</mask>
<path d="M142.874 55.1256C140.427 52.6782 137.309 51.0115 133.914 50.3363C130.519 49.661 127.001 50.0076 123.803 51.3321C120.605 52.6566 117.872 54.8997 115.949 57.7775C114.026 60.6554 113 64.0388 113 67.5L125.001 67.5C125.001 66.4123 125.323 65.349 125.927 64.4446C126.532 63.5403 127.391 62.8354 128.395 62.4191C129.4 62.0029 130.506 61.894 131.573 62.1062C132.64 62.3184 133.62 62.8422 134.389 63.6113L142.874 55.1256Z" fill="#9A8C98" stroke="black" stroke-width="2" mask="url(#path-8-inside-4_303_27)"/>
<rect x="113" y="67.5" width="12" height="32.5" fill="#9A8C98"/>
<path d="M124.5 67.5V99.5H113.5V67.5" stroke="black"/>
<rect x="114" y="66.5" width="10" height="1" fill="#9A8C98"/>
<circle cx="75" cy="75" r="12.5" stroke="black"/>
</svg>
